<svg width="50" height="50" viewBox="0 0 50 50" fill="none" xmlns="http://www.w3.org/2000/svg">
<path d="M25 49.2188C11.6453 49.2188 0.78125 38.3547 0.78125 25C0.78125 11.6453 11.6453 0.78125 25 0.78125C38.3547 0.78125 49.2188 11.6453 49.2188 25C49.2188 38.3547 38.3547 49.2188 25 49.2188Z" fill="#5D79BF"/>
<path d="M25 1.5625C37.9234 1.5625 48.4375 12.0766 48.4375 25C48.4375 37.9234 37.9234 48.4375 25 48.4375C12.0766 48.4375 1.5625 37.9234 1.5625 25C1.5625 12.0766 12.0766 1.5625 25 1.5625ZM25 0C11.1922 0 0 11.1922 0 25C0 38.8063 11.1922 50 25 50C38.8078 50 50 38.8063 50 25C50 11.1922 38.8078 0 25 0Z" fill="#5D79BF"/>
<path d="M21.3907 38.9109H27.1391V24.9984H30.9735L31.4813 20.2047H27.1391L27.1454 17.8047C27.1454 16.5547 27.2641 15.8844 29.0579 15.8844H31.4547V11.0891H27.6188C23.011 11.0891 21.3907 13.4156 21.3907 17.3265V20.2047H18.5188V25H21.3907V38.9109Z" fill="white"/>
</svg>
