<svg width="50" height="50" viewBox="0 0 50 50" fill="none" xmlns="http://www.w3.org/2000/svg">
<path d="M41.5638 8.43252C37.3344 4.18955 31.47 1.56934 24.9962 1.56934C18.5353 1.56934 12.6713 4.18955 8.42866 8.43242C4.18599 12.6751 1.56519 18.5261 1.56519 25C1.56519 31.4736 4.18589 37.3251 8.42866 41.5676C12.6713 45.8104 18.5353 48.4305 24.9962 48.4305C31.47 48.4305 37.3343 45.8104 41.5638 41.5676C45.8063 37.3251 48.4273 31.4736 48.4273 25C48.4273 18.5262 45.8064 12.6752 41.5638 8.43252ZM40.2797 40.2831C36.3612 44.1887 30.9644 46.6017 24.9963 46.6017C19.0414 46.6017 13.6312 44.1887 9.72632 40.2831C5.82075 36.3654 3.39478 30.9682 3.39478 25.0001C3.39478 19.0322 5.82075 13.635 9.72632 9.72988C13.6312 5.8248 19.0414 3.39834 24.9963 3.39834C30.9645 3.39834 36.3612 5.8248 40.2797 9.72988C44.1848 13.635 46.5979 19.0322 46.5979 25.0001C46.5979 30.9682 44.1848 36.3654 40.2797 40.2831Z" fill="#DEDEDE"/>
<path d="M24.9962 17.4234C20.8185 17.4234 17.4196 20.8224 17.4196 25.0001C17.4196 29.191 20.8185 32.5772 24.9962 32.5772C29.1867 32.5772 32.5729 29.191 32.5729 25.0001C32.573 20.8224 29.1867 17.4234 24.9962 17.4234ZM24.9962 31.0071C21.6879 31.0071 19.0022 28.3214 19.0022 25.0001C19.0022 21.6918 21.6878 18.9931 24.9962 18.9931C28.3175 18.9931 31.0032 21.6918 31.0032 25.0001C31.0032 28.3214 28.3176 31.0071 24.9962 31.0071Z" fill="#DEDEDE"/>
<path d="M31.1979 13.2812H18.808C15.7592 13.2812 13.1836 15.7494 13.1836 18.8118V31.2021C13.1836 34.25 15.7592 36.4258 18.808 36.4258H31.1979C34.2596 36.4258 36.8164 34.25 36.8164 31.2021V18.8118C36.8164 15.7494 34.2596 13.2812 31.1979 13.2812ZM35.4492 31.2021C35.4492 33.4978 33.4943 35.0586 31.1979 35.0586H18.808C16.5111 35.0586 14.6484 33.4978 14.6484 31.2021V18.8118C14.6484 16.5149 16.5111 14.6484 18.808 14.6484H31.1979C33.4943 14.6484 35.4492 16.5149 35.4492 18.8118V31.2021Z" fill="#DEDEDE"/>
<path d="M32.4302 16.3985C32.2701 16.3983 32.1114 16.4297 31.9634 16.4909C31.8154 16.5521 31.6809 16.6419 31.5676 16.7551C31.4543 16.8684 31.3645 17.0028 31.3033 17.1508C31.2421 17.2989 31.2106 17.4575 31.2108 17.6177C31.2108 18.2926 31.7555 18.8374 32.4302 18.8374C32.5905 18.8376 32.7492 18.8062 32.8973 18.7449C33.0453 18.6837 33.1799 18.5939 33.2932 18.4806C33.4065 18.3673 33.4963 18.2327 33.5576 18.0847C33.6188 17.9366 33.6503 17.7779 33.6501 17.6177C33.6501 16.9433 33.1049 16.3985 32.4302 16.3985Z" fill="#DEDEDE"/>
</svg>
