<svg width="50" height="50" viewBox="0 0 50 50" fill="none" xmlns="http://www.w3.org/2000/svg">
<path d="M28.1469 14.9437C25.8985 15.7609 24.4781 17.8719 24.6406 20.1797L24.6953 21.0703L23.7953 20.9609C20.5235 20.5422 17.6625 19.125 15.2344 16.7422L14.0469 15.5609L13.7406 16.4344C13.0938 18.3797 13.5078 20.4344 14.8563 21.8172C15.575 22.5812 15.4125 22.6906 14.1735 22.2359C13.7422 22.0906 13.3641 21.9812 13.3281 22.0359C13.2031 22.1641 13.6344 23.8172 13.975 24.4719C14.4422 25.3812 15.3953 26.2719 16.4391 26.8L17.3203 27.2187L16.2781 27.2375C15.2719 27.2375 15.236 27.2562 15.3438 27.6391C15.7031 28.8203 17.1235 30.075 18.7063 30.6219L19.8219 31.0031L18.8516 31.5844C17.3831 32.4301 15.7255 32.8927 14.0313 32.9297C13.2203 32.9484 12.5563 33.0203 12.5563 33.075C12.5563 33.2562 14.7516 34.2734 16.0266 34.675C19.8563 35.8562 24.4078 35.3469 27.825 33.3297C30.2531 31.8922 32.6797 29.0391 33.8141 26.2734C34.4266 24.8016 35.0375 22.1094 35.0375 20.8203C35.0375 19.9828 35.0922 19.875 36.0985 18.875C36.6922 18.2937 37.25 17.6578 37.3578 17.475C37.5375 17.1297 37.5188 17.1297 36.6031 17.4375C35.075 17.9828 34.8578 17.9109 35.6141 17.0922C36.1703 16.5109 36.8375 15.4562 36.8375 15.1469C36.8375 15.0922 36.5688 15.1828 36.261 15.3469C35.9375 15.5281 35.2188 15.8016 34.6781 15.9641L33.7078 16.2734L32.8266 15.6719C32.3406 15.3453 31.6578 14.9812 31.2985 14.8719C30.3781 14.6172 28.975 14.6531 28.1469 14.9437Z" fill="#DEDEDE"/>
<path d="M25 1.5625C37.9234 1.5625 48.4375 12.0766 48.4375 25C48.4375 37.9234 37.9234 48.4375 25 48.4375C12.0766 48.4375 1.5625 37.9234 1.5625 25C1.5625 12.0766 12.0766 1.5625 25 1.5625ZM25 0C11.1922 0 0 11.1937 0 25C0 38.8063 11.1922 50 25 50C38.8078 50 50 38.8063 50 25C50 11.1937 38.8078 0 25 0Z" fill="#DEDEDE"/>
</svg>
